<?xml version="1.0" encoding="UTF-8" standalone="no"?>
<!-- Created with Inkscape (http://www.inkscape.org/) -->

<svg
   width="146.98346mm"
   height="99.101341mm"
   viewBox="0 0 146.98346 99.101341"
   version="1.1"
   id="svg1"
   xml:space="preserve"
   sodipodi:docname="SteamFerris.svg"
   inkscape:version="1.4 (e7c3feb100, 2024-10-09)"
   inkscape:export-filename="steam ferris.png"
   inkscape:export-xdpi="96"
   inkscape:export-ydpi="96"
   xmlns:inkscape="http://www.inkscape.org/namespaces/inkscape"
   xmlns:sodipodi="http://sodipodi.sourceforge.net/DTD/sodipodi-0.dtd"
   xmlns="http://www.w3.org/2000/svg"
   xmlns:svg="http://www.w3.org/2000/svg"><sodipodi:namedview
     id="namedview1"
     pagecolor="#ffffff"
     bordercolor="#000000"
     borderopacity="0.25"
     inkscape:showpageshadow="2"
     inkscape:pageopacity="0.0"
     inkscape:pagecheckerboard="0"
     inkscape:deskcolor="#d1d1d1"
     inkscape:document-units="mm"
     inkscape:zoom="1.2818672"
     inkscape:cx="287.08122"
     inkscape:cy="230.13304"
     inkscape:window-width="1920"
     inkscape:window-height="1011"
     inkscape:window-x="0"
     inkscape:window-y="0"
     inkscape:window-maximized="1"
     inkscape:current-layer="layer1" /><defs
     id="defs1"><filter
       style="color-interpolation-filters:sRGB"
       inkscape:label="Drop Shadow"
       id="filter78"
       x="-0.035913171"
       y="0"
       width="1.0359132"
       height="1.017473"><feFlood
         result="flood"
         in="SourceGraphic"
         flood-opacity="1.000000"
         flood-color="rgb(76,32,10)"
         id="feFlood77" /><feGaussianBlur
         result="blur"
         in="SourceGraphic"
         stdDeviation="0.000000"
         id="feGaussianBlur77" /><feOffset
         result="offset"
         in="blur"
         dx="-0.800000"
         dy="0.500000"
         id="feOffset77" /><feComposite
         result="comp1"
         operator="in"
         in="flood"
         in2="offset"
         id="feComposite77" /><feComposite
         result="comp2"
         operator="over"
         in="SourceGraphic"
         in2="comp1"
         id="feComposite78" /></filter><filter
       style="color-interpolation-filters:sRGB"
       inkscape:label="Drop Shadow"
       id="filter99"
       x="-0.059231282"
       y="0"
       width="1.0592313"
       height="1.0512958"><feFlood
         result="flood"
         in="SourceGraphic"
         flood-opacity="1.000000"
         flood-color="rgb(24,24,24)"
         id="feFlood98" /><feGaussianBlur
         result="blur"
         in="SourceGraphic"
         stdDeviation="0.000000"
         id="feGaussianBlur98" /><feOffset
         result="offset"
         in="blur"
         dx="-0.200000"
         dy="0.200000"
         id="feOffset98" /><feComposite
         result="comp1"
         operator="in"
         in="flood"
         in2="offset"
         id="feComposite98" /><feComposite
         result="comp2"
         operator="over"
         in="SourceGraphic"
         in2="comp1"
         id="feComposite99" /></filter></defs><g
     inkscape:label="Layer 1"
     inkscape:groupmode="layer"
     id="layer1"
     transform="translate(-14.219822,-106.79278)"><g
       id="g5"
       inkscape:label="Claw Outlines"
       sodipodi:insensitive="true"
       style="display:inline"><path
         style="fill:#000000;fill-opacity:1;stroke:none;stroke-width:1.5;stroke-linecap:round;stroke-linejoin:round;paint-order:stroke markers fill"
         d="m 99.661948,186.06031 c 0,0 -2.639894,0.003 -2.773178,0.003 -0.551423,0 10.68736,-14.13674 16.27742,-14.04215 5.80759,0.0983 14.73347,14.982 11.6474,12.96061 -0.26628,-0.17441 -25.151642,1.07857 -25.151642,1.07857 z"
         id="path5"
         sodipodi:nodetypes="sssss" /><path
         style="fill:#000000;fill-opacity:1;stroke:none;stroke-width:1.5;stroke-linecap:round;stroke-linejoin:round;paint-order:stroke markers fill"
         d="m 64.963687,184.32191 c 3.534577,0.46986 23.918865,1.73778 29.059158,1.73778 0.52968,0 2.408808,0.002 2.743232,0.002 0.624379,0 -8.78104,-11.78937 -15.980895,-12.49098 -6.667568,-0.64974 -16.590265,7.80634 -16.466082,10.1648 0.01693,0.32151 0.644587,0.5297 0.644587,0.58607 z"
         id="path4"
         sodipodi:nodetypes="zsssssz" /></g><path
       style="fill:#535353;fill-opacity:1"
       d="m 47.6687,194.13551 c -0.2274,-0.2274 -0.85932,-1.09169 -1.40427,-1.92066 -0.54495,-0.82896 -2.18802,-3.05503 -3.651264,-4.94679 -5.887277,-7.61143 -10.306717,-13.65991 -11.095739,-15.18571 -0.552184,-1.0678 -0.763309,-1.32834 0.797435,-2.79347 l 1.239585,-1.16365 2.588691,1.36708 c 0.96826,0.51134 3.232098,1.3926 4.978348,2.06371 l 4.236007,1.22016 0.811551,2.39851 c 0.394765,1.16671 1.08425,1.98888 0.99923,2.07391 -0.16706,0.16705 -3.852283,-1.30719 -5.677221,-2.42107 -0.618464,-0.37749 -1.124479,-0.62566 -1.124479,-0.5515 0,0.17723 0.442335,1.2363 1.365468,3.2693 0.413159,0.90988 0.751198,1.71596 0.751198,1.79126 0,0.0753 0.99879,2.15709 2.21954,4.62619 2.69685,5.45471 4.29085,10.02286 3.63811,10.42626 -0.1423,0.088 -0.44479,-0.0261 -0.67219,-0.25353 z m 92.5623,-1.34336 c 0.28994,-1.58124 1.39831,-4.67585 2.92616,-8.16993 1.47678,-3.3773 3.30733,-8.37015 3.30733,-9.02081 0,-0.26963 -0.49283,-0.0569 -1.58224,0.68286 -2.27028,1.54172 -2.35994,1.5565 -2.1246,0.35009 0.10815,-0.55438 0.43514,-1.59941 0.72665,-2.32228 0.44079,-1.09305 0.67868,-1.35284 1.41317,-1.54315 1.90203,-0.49287 5.02429,0.0832 7.02965,1.80816 l -1.60461,2.78737 c -0.69831,1.21304 -1.48431,2.5644 -1.73581,3.00929 -0.25151,0.44489 -1.44746,2.41623 -2.65768,4.38077 -1.21021,1.96453 -2.86565,4.75288 -3.67877,6.19634 -1.63602,2.9043 -2.33023,3.53733 -2.01925,1.84129 z m -45.555593,-8.0783 -2.191093,-2.94651 c 2.304524,0 5.89351,0.0512 9.923936,-0.39979 0.0451,-0.005 -3.147771,2.99584 -3.595053,3.60405 -0.361574,0.49166 -0.863845,1.09042 -2.04712,1.09042 -0.604208,0 -1.26688,-0.0668 -2.09067,-1.34817 z m 29.475263,-2.13054 c -0.41265,-0.62485 -2.24132,-2.86819 -2.20234,-3.01371 0.039,-0.14552 2.30004,0.019 3.83788,-0.37293 2.3082,-0.58821 6.44672,-2.54179 9.81609,-3.74161 0.29105,-0.10364 2.19859,2.54885 0.72598,3.9867 -2.81155,2.74517 -7.11745,3.63723 -10.39927,4.12487 -0.98029,0.14565 -1.06293,0.1 -1.77834,-0.98332 z m -61.29451,0.19407 c -2.114506,-0.46546 -5.008288,-1.26265 -5.632158,-1.95766 -0.86537,-0.96403 -2.645677,-5.14994 -2.529327,-5.26629 0.0618,-0.0618 1.53468,0.25594 3.27307,0.70608 3.37643,0.87431 13.246381,1.22656 12.246764,2.06963 -1.783896,1.50452 -2.582776,2.07703 -4.017703,3.21591 -2.466381,1.95752 -2.474779,1.42293 -3.340646,1.23233 z"
       id="path3"
       sodipodi:nodetypes="ssssscsccssssssscsssscssscsssssscssssssssssssssssss"
       inkscape:label="Rear" /><path
       style="fill:#7c7c7c;fill-opacity:1"
       d="m 78.683948,205.61843 c -1.787971,-0.50337 -5.095181,-2.48153 -6.902903,-4.12887 -1.494648,-1.36204 -5.238521,-5.46764 -6.466351,-7.09112 -0.375279,-0.49621 -1.08449,-0.91423 -2.087426,-1.23038 -1.371538,-0.43234 -3.754306,-1.69894 -4.521659,-2.40356 -0.16407,-0.15066 -0.567179,-0.45252 -0.895798,-0.6708 -0.69021,-0.45847 -4.90044,-4.57462 -5.685059,-5.55803 -8.212541,-10.29326 -6.057056,-10.57013 -8.202082,-11.40889 -1.043561,-0.40806 -1.722916,-0.68747 -5.866019,-2.41266 l -3.484768,-1.45105 -1.38964,0.75993 c -0.764303,0.41796 -1.577407,0.94027 -1.806899,1.16068 -0.229492,0.2204 -0.751128,0.64998 -1.159192,0.9546 -0.62784,0.4687 -0.716046,0.68142 -0.573596,1.38329 0.503188,2.47928 1.591915,4.97531 4.920344,11.28046 0.345685,0.65485 0.688051,1.25016 0.760811,1.32292 0.118917,0.11892 0.639393,1.03012 1.435724,2.51354 0.156237,0.29104 0.343599,0.5887 0.416359,0.66146 0.07276,0.0728 0.778615,1.0831 1.568565,2.24521 2.499618,3.67722 5.06599,9.05348 5.495818,11.51312 0.25906,1.48244 0.215489,1.71925 -0.330709,1.7974 -0.564698,0.0808 -0.693158,-0.0409 -3.850725,-3.64948 -0.955008,-1.09141 -4.345841,-4.611 -7.535185,-7.82132 -7.22538,-7.27291 -14.181061,-14.55564 -15.93896,-16.68841 -2.861726,-3.47198 -3.07926,-5.2092 -0.906627,-7.24027 1.696903,-1.58634 4.551618,-4.04869 5.00074,-4.31341 0.198163,-0.1168 0.68709,-0.51771 1.086503,-0.89091 0.6608,-0.61743 3.602216,-3.16738 7.546519,-6.54217 0.832734,-0.7125 1.514061,-1.37591 1.514061,-1.47424 0,-0.0983 -0.924952,-1.6585 -2.05545,-3.46705 -2.92338,-4.67676 -2.849117,-4.49641 -2.314972,-5.62203 0.652406,-1.37485 1.552894,-1.85255 3.676,-1.95011 1.000515,-0.046 2.845984,-0.20127 4.101042,-0.34508 1.255057,-0.14382 2.417057,-0.26247 2.582221,-0.26366 0.165165,-10e-4 0.50104,-0.30854 0.74639,-0.68299 0.43406,-0.66246 0.405392,-0.78859 -1.06308,-4.67724 -1.6899,-4.475 -1.728988,-5.32728 -0.293085,-6.39055 0.831542,-0.61575 2.915531,-0.69857 4.830236,-0.19197 0.56952,0.15069 1.928459,0.34482 3.019865,0.43139 1.66989,0.13247 2.077369,0.082 2.571154,-0.31826 l 0.586779,-0.47568 -0.682126,-4.26422 c -0.660057,-4.12627 -0.666845,-4.28754 -0.209809,-4.98507 0.259773,-0.39646 0.756914,-0.82905 1.104758,-0.9613 0.843093,-0.32054 2.378215,-0.30619 2.58237,0.0241 0.08994,0.14553 0.447124,0.26459 0.79375,0.26459 0.346625,0 0.703813,0.11906 0.79375,0.26458 0.08994,0.14552 0.434307,0.26458 0.765267,0.26458 0.330961,0 0.682413,0.0807 0.781005,0.17926 0.09859,0.0986 0.938055,0.43462 1.865475,0.74672 1.664034,0.56 1.695322,0.56084 2.378381,0.0633 0.688915,-0.50184 0.692163,-0.5214 0.692163,-4.16908 0,-2.01568 0.113948,-3.96457 0.253217,-4.33088 0.266122,-0.69995 1.496226,-1.48511 2.326729,-1.48511 0.601712,0 1.913085,0.58857 1.915907,0.8599 0.0011,0.10914 0.138026,0.19844 0.304202,0.19844 0.166176,0 1.061877,0.47982 1.990447,1.06626 3.121616,1.97148 3.461794,2.12091 4.194334,1.8424 0.76851,-0.29219 0.707005,-0.13376 1.334643,-3.43783 0.73387,-3.8633 0.996183,-4.57009 1.890754,-5.09451 1.103987,-0.6472 2.149062,-0.36981 3.594904,0.95417 0.659265,0.6037 1.9329,1.75248 2.830299,2.55284 0.8974,0.80037 1.673188,1.49631 1.723973,1.54653 0.05079,0.0502 0.446891,0.0134 0.880234,-0.0817 0.561762,-0.12338 0.838527,-0.37477 0.9643,-0.87589 0.09702,-0.38657 0.421708,-1.24276 0.721525,-1.90265 0.299818,-0.65989 0.821773,-1.80605 1.159901,-2.54702 0.719553,-1.57682 1.050707,-1.89718 2.19833,-2.12671 0.761131,-0.15223 0.965237,-0.0448 1.974351,1.03878 0.619004,0.66471 1.833001,2.16583 2.697771,3.33583 1.38459,1.8733 1.67234,2.12815 2.41015,2.13465 0.46082,0.004 0.87978,-0.1184 0.93102,-0.27214 0.0513,-0.15373 0.86484,-1.39635 1.807988,-2.76139 1.81408,-2.62554 2.62346,-3.24014 3.71668,-2.82224 1.098473,0.41991 1.489803,1.04605 4.271863,6.83516 0.15201,0.31633 0.57089,0.64906 0.93083,0.7394 0.55699,0.13979 1.00216,-0.17094 2.98931,-2.08657 2.64633,-2.55106 3.30458,-2.85055 4.45883,-2.02865 0.78349,0.55789 1.12429,1.29582 2.02659,4.38818 1.24911,4.28091 1.2947,4.31385 3.81911,2.75893 3.78098,-2.3289 3.83462,-2.35423 4.56276,-2.15468 1.01606,0.27845 1.78327,1.42165 1.93438,2.88237 0.51357,4.9643 0.60267,5.44377 1.10507,5.94616 0.51268,0.51268 0.52786,0.51245 1.90297,-0.0296 2.08521,-0.82191 4.45987,-1.59799 4.88956,-1.59799 0.20993,0 0.7021,0.38078 1.09371,0.84617 l 0.71201,0.84618 -0.18723,3.61613 c -0.16591,3.20439 -0.13555,3.67648 0.26667,4.14623 0.37759,0.44099 0.61582,0.49374 1.41704,0.31371 0.52973,-0.11902 1.37983,-0.27123 1.88911,-0.33825 0.50928,-0.067 1.46175,-0.20405 2.1166,-0.3045 1.05662,-0.16209 1.27614,-0.10329 1.95045,0.52245 0.72753,0.67512 0.75202,0.77412 0.57611,2.32893 -0.10104,0.89311 -0.34523,2.28434 -0.54265,3.09162 -0.70846,2.89706 -0.71323,3.03173 -0.12967,3.65811 0.49683,0.53329 0.79842,0.5878 3.252,0.5878 2.52953,0 2.75124,0.0435 3.42927,0.67216 0.48859,0.45305 0.7249,0.93857 0.7249,1.48935 0,0.84018 -0.94903,3.7059 -1.69376,5.11453 -0.44056,0.83332 -0.5502,2.1692 -0.22042,2.68567 0.10692,0.16743 0.90877,0.50002 1.78189,0.73908 4.18326,1.14536 4.30206,1.19857 4.7408,2.12314 0.23022,0.48515 0.41858,1.02819 0.41858,1.20677 0,0.4263 -1.44093,2.97724 -2.55634,4.52558 -1.48905,2.06702 -1.61777,1.84246 4.01154,6.99852 1.60073,1.46615 3.4104,3.11108 4.02149,3.65539 1.63348,1.45498 1.74241,2.58858 0.4988,5.19116 -1.25461,2.6256 -2.40311,4.70086 -2.914,5.26539 -0.22861,0.25262 -0.41566,0.57544 -0.41566,0.7174 0,0.14195 -0.38124,0.84695 -0.8472,1.56666 -0.46595,0.71972 -1.1353,1.84436 -1.48743,2.4992 -0.35214,0.65484 -0.80433,1.37859 -1.00489,1.60833 -0.20056,0.22974 -0.36465,0.48965 -0.36465,0.57757 0,0.18806 -2.50179,4.33622 -2.97957,4.94034 -0.40347,0.51017 -0.61914,0.88947 -2.90591,5.11074 -1.00512,1.85539 -1.94128,3.37344 -2.08035,3.37344 -1.17508,0 0.13112,-5.65937 2.87013,-12.43542 2.38404,-5.8979 4.03737,-11.41741 4.03737,-13.47849 0,-3.07596 -7.05158,-4.64891 -8.10931,-3.0348 -0.94011,1.43478 0.10454,4.09234 -6.31051,10.56704 -2.42195,2.44446 -4.952,4.33618 -8.66035,6.47537 -1.49726,0.86369 -2.51687,1.71485 -3.71328,3.09979 -2.8552,3.3051 -6.52269,6.34761 -9.58679,7.9531 -3.0193,1.58202 -4.78502,2.01635 -8.06979,1.985 -1.81021,-0.0173 -2.61029,-0.1657 -4.10104,-0.76076 -1.01865,-0.40661 -2.00942,-0.89452 -2.20172,-1.08425 -0.19229,-0.18973 -0.45734,-0.34497 -0.589,-0.34497 -0.48771,0 -3.246283,-2.82524 -3.057233,-3.13113 0.11007,-0.1781 0.84586,-0.30845 1.74115,-0.30845 1.470863,0 4.281343,-0.54614 5.429713,-1.05512 0.29104,-0.129 0.80475,-0.31202 1.14157,-0.40671 0.82484,-0.2319 4.22205,-2.2011 5.20843,-3.01908 1.33028,-1.10315 4.67611,-4.55723 4.54318,-4.69015 -0.11664,-0.11664 -1.81676,-0.57887 -4.27859,-1.16326 -0.58209,-0.13818 -2.84427,-0.32268 -5.02709,-0.41 -3.11372,-0.12457 -4.39626,-0.0674 -5.95312,0.26547 -1.091413,0.23334 -2.077863,0.42435 -2.192123,0.42447 -0.35203,3.6e-4 0.35186,-1.08778 1.36274,-2.10666 0.528923,-0.5331 1.949803,-2.06009 3.157513,-3.39331 2.46741,-2.72384 5.44914,-4.86373 7.68738,-5.51699 2.136,-0.62342 5.082,-0.41308 6.93262,0.49497 2.02499,0.99361 4.36933,3.19855 5.90255,5.55156 l 1.28714,1.97535 1.61989,-0.37423 c 0.89095,-0.20583 1.68095,-0.46294 1.75557,-0.57137 0.0746,-0.10843 0.85005,-0.7201 1.72318,-1.35926 1.7972,-1.31563 5.35398,-4.65169 5.15686,-4.83684 -0.0714,-0.067 -1.37994,0.29334 -2.9079,0.80086 -1.52797,0.50752 -4.14651,1.26583 -5.81898,1.68512 l -3.04085,0.76236 -1.83045,-1.7812 c -3.64476,-4.34884 -8.28951,-4.91746 -13.23903,-2.48088 -1.93089,0.95689 -2.83017,1.6414 -5.3009,4.0349 l -2.975523,2.8825 -2.21953,-0.001 c -2.485118,-0.002 -4.076128,-0.34633 -4.417938,-0.95713 -0.46093,-0.82362 -3.66661,-3.89242 -5.209931,-4.98746 -5.588268,-3.96507 -11.973692,-3.636 -18.003278,0.92777 -0.954913,0.72277 -1.938259,1.31292 -2.185214,1.31145 -0.246955,-10e-4 -2.770728,-0.58577 -5.608384,-1.29843 -2.837656,-0.71265 -5.195695,-1.26051 -5.240087,-1.21746 -0.04439,0.043 0.414873,0.80042 1.020588,1.68306 1.214431,1.76966 3.549584,4.15353 5.065287,5.17096 l 0.978081,0.65654 0.828636,-0.71006 c 0.45575,-0.39053 1.504822,-1.30957 2.331271,-2.04231 5.05666,-4.48331 10.287709,-6.22861 15.002824,-5.00558 3.452538,0.89554 6.947367,3.26657 9.767977,6.62699 0.72153,0.85961 1.775,2.0019 2.34104,2.53842 1.59841,1.51504 2.167138,1.35382 -7.75395,2.19807 -6.26024,0.53272 -10.584399,1.01566 -10.576526,1.18122 0.0037,0.0787 0.662945,0.61939 1.46489,1.20147 0.801945,0.58208 1.602554,1.17994 1.77913,1.32857 0.709776,0.59745 4.10441,2.48448 4.769835,2.65149 0.390824,0.0981 0.710588,0.27504 0.710588,0.39323 0,0.11818 0.386953,0.29642 0.859896,0.3961 0.472943,0.0997 1.217083,0.34145 1.653646,0.53729 0.436562,0.19585 1.802324,0.54297 3.035021,0.77139 1.2327,0.22842 2.34997,0.524 2.4828,0.65684 0.40315,0.40314 -1.11756,2.65769 -3.13116,4.64217 -2.624416,2.58647 -4.317247,3.38245 -7.413745,3.48602 -1.402644,0.0469 -2.883469,-0.0617 -3.603305,-0.26441 z"
       id="path1"
       sodipodi:nodetypes="csssssssscssssssssssssssssssssssscsssssccssssssscscssscsssssssscssssssccssssssssssscsscsssssssssssssssssssssssssssssssssssssssssssssssssssssssscssscsscsssccssscsssscsssssscsssssssssscc"
       inkscape:label="Front" /><g
       id="g2"
       transform="matrix(1.0954065,0.14794695,-0.1363381,1.1886776,2.6303753,-39.26462)"
       inkscape:label="Eye"><ellipse
         style="fill:#000000;fill-opacity:1;stroke:none;stroke-width:1.5;stroke-linecap:round;stroke-linejoin:round;paint-order:stroke markers fill"
         id="path2"
         ry="9.7907524"
         rx="8.3337946"
         cy="154.63731"
         cx="94.719917"
         inkscape:label="Void" /><ellipse
         style="fill:#ffffff;fill-opacity:1;stroke:none;stroke-width:0.728008;stroke-linecap:round;stroke-linejoin:round;paint-order:stroke markers fill"
         id="ellipse2"
         ry="5.1283565"
         rx="3.7477431"
         cy="150.86945"
         cx="91.239815"
         inkscape:label="Pupil" /></g><g
       id="g99"
       inkscape:label="Valve"
       transform="matrix(1.1282814,0,0,1.1282814,-17.435432,-26.537326)"><path
         id="path7"
         style="fill:#333333;stroke-width:1.5;stroke-linecap:round;stroke-linejoin:round;paint-order:stroke markers fill"
         inkscape:label="Stem"
         d="m 120.00329,170.05466 -10.72135,-0.0695 -4.07458,-7.19633 4.19491,-7.12685 10.72135,0.0695 4.07458,7.19633 z"
         sodipodi:nodetypes="ccccccc" /><g
         id="g48"
         style="fill:#e34600;fill-opacity:1;filter:url(#filter78)"
         inkscape:label="Handle"><g
           id="g27"
           inkscape:label="Circles"
           transform="translate(-29.019765,0.66642354)"
           style="fill:#e34600;fill-opacity:1"><path
             id="path8"
             style="fill:#e34600;fill-opacity:1;stroke-width:1.38535;stroke-linecap:round;stroke-linejoin:round;paint-order:stroke markers fill"
             d="m 143.41113,165.7206 a 3.1411807,3.1411807 0 0 1 -3.14118,3.14118 3.1411807,3.1411807 0 0 1 -3.14118,-3.14118 3.1411807,3.1411807 0 0 1 3.14118,-3.14118 3.1411807,3.1411807 0 0 1 3.14118,3.14118 z" /><path
             id="path9"
             style="fill:#e34600;fill-opacity:1;stroke-width:1.26783;stroke-linecap:round;stroke-linejoin:round;paint-order:stroke markers fill"
             d="m 150.17614,173.31397 a 2.8747226,2.8747226 0 0 1 -2.87472,2.87472 2.8747226,2.8747226 0 0 1 -2.87472,-2.87472 2.8747226,2.8747226 0 0 1 2.87472,-2.87472 2.8747226,2.8747226 0 0 1 2.87472,2.87472 z" /><path
             id="path10"
             style="fill:#e34600;fill-opacity:1;stroke-width:1.18184;stroke-linecap:round;stroke-linejoin:round;paint-order:stroke markers fill"
             d="m 158.2349,169.08962 a 2.6797526,2.6797526 0 0 1 -2.67975,2.67975 2.6797526,2.6797526 0 0 1 -2.67975,-2.67975 2.6797526,2.6797526 0 0 1 2.67975,-2.67975 2.6797526,2.6797526 0 0 1 2.67975,2.67975 z" /><path
             id="path11"
             style="fill:#e34600;fill-opacity:1;stroke-width:1.12452;stroke-linecap:round;stroke-linejoin:round;paint-order:stroke markers fill"
             d="m 159.40472,157.998 a 2.5497726,2.5497726 0 0 1 -2.54977,2.54977 2.5497726,2.5497726 0 0 1 -2.54977,-2.54977 2.5497726,2.5497726 0 0 1 2.54977,-2.54977 2.5497726,2.5497726 0 0 1 2.54977,2.54977 z" /><path
             id="path12"
             style="fill:#e34600;fill-opacity:1;stroke-width:1.29191;stroke-linecap:round;stroke-linejoin:round;paint-order:stroke markers fill"
             d="m 153.24195,150.50249 a 2.9293193,2.9293193 0 0 1 -2.92932,2.92932 2.9293193,2.9293193 0 0 1 -2.92932,-2.92932 2.9293193,2.9293193 0 0 1 2.92932,-2.92932 2.9293193,2.9293193 0 0 1 2.92932,2.92932 z" /><path
             id="path13"
             style="fill:#e34600;fill-opacity:1;stroke-width:1.43522;stroke-linecap:round;stroke-linejoin:round;paint-order:stroke markers fill"
             d="m 144.87991,154.42355 a 3.254269,3.254269 0 0 1 -3.25427,3.25427 3.254269,3.254269 0 0 1 -3.25427,-3.25427 3.254269,3.254269 0 0 1 3.25427,-3.25427 3.254269,3.254269 0 0 1 3.25427,3.25427 z" /><path
             id="path14"
             style="fill:#e34600;fill-opacity:1;stroke-width:1.20592;stroke-linecap:round;stroke-linejoin:round;paint-order:stroke markers fill"
             d="m 150.43188,161.77657 a 2.7343496,2.7343496 0 0 1 -2.73435,2.73435 2.7343496,2.7343496 0 0 1 -2.73435,-2.73435 2.7343496,2.7343496 0 0 1 2.73435,-2.73435 2.7343496,2.7343496 0 0 1 2.73435,2.73435 z"
             inkscape:label="Center" /></g><path
           id="path15"
           style="fill:#e34600;fill-opacity:1;stroke:none;stroke-width:1.5;stroke-linecap:round;stroke-linejoin:round;paint-order:stroke markers fill"
           d="m 119.20581,149.18139 c -3.66886,1.32076 -7.43685,3.29582 -9.47107,6.77036 -1.31055,2.23872 -1.19625,4.93203 -1.04335,7.43124 0.30621,3.59069 1.65885,7.3874 4.74093,9.50506 1.91612,1.31339 4.22865,2.17158 6.5804,1.88954 2.96545,-0.24271 5.72787,-2.10148 6.99848,-4.80464 2.25187,-4.21606 2.51918,-9.47316 0.65963,-13.87835 -1.80486,-3.27368 -4.9553,-5.7048 -8.46502,-6.91321 z m -0.13023,3.26956 c 5.01881,1.37532 8.32899,7.03965 7.05253,12.08666 -0.22521,4.19063 -4.52443,7.85738 -8.72064,6.91402 -2.36326,-0.61824 -4.2327,-2.53209 -5.28059,-4.68425 -1.43298,-3.0416 -1.42878,-6.76101 0.12561,-9.75653 1.67268,-2.23441 4.22932,-3.66105 6.82309,-4.5599 z"
           inkscape:label="Ring" /><g
           id="g28"
           inkscape:label="Bridges"
           transform="translate(-29.019765,0.66642354)"
           style="fill:#e34600;fill-opacity:1"><path
             style="fill:#e34600;fill-opacity:1;stroke:none;stroke-width:1.5;stroke-linecap:round;stroke-linejoin:round;paint-order:stroke markers fill"
             d="m 148.54056,152.83502 -1.7319,6.3557 1.80197,0.008 1.702,-5.76738 z"
             id="path18" /><path
             style="fill:#e34600;fill-opacity:1;stroke:none;stroke-width:1.5;stroke-linecap:round;stroke-linejoin:round;paint-order:stroke markers fill"
             d="m 145.71922,163.66415 -2.30809,2.05645 -1.20616,-1.45425 2.75821,-2.48978 z"
             id="path19" /><path
             style="fill:#e34600;fill-opacity:1;stroke:none;stroke-width:1.5;stroke-linecap:round;stroke-linejoin:round;paint-order:stroke markers fill"
             d="m 145.71922,163.66415 0.31577,7.06909 2.28167,-0.10875 -0.61913,-6.11357 z"
             id="path20" /><path
             style="fill:#e34600;fill-opacity:1;stroke:none;stroke-width:1.5;stroke-linecap:round;stroke-linejoin:round;paint-order:stroke markers fill"
             d="m 147.69753,164.51092 5.17787,4.5787 1.58727,-2.329 -4.79401,-3.08898 z"
             id="path21" /><path
             style="fill:#e34600;fill-opacity:1;stroke:none;stroke-width:1.5;stroke-linecap:round;stroke-linejoin:round;paint-order:stroke markers fill"
             d="m 150.43188,161.77657 4.80854,-2.00606 -0.61233,-2.02109 -5.06662,2.02655 z"
             id="path22" /><path
             style="fill:#e34600;fill-opacity:1;stroke:none;stroke-width:1.5;stroke-linecap:round;stroke-linejoin:round;paint-order:stroke markers fill"
             d="m 146.80866,159.19072 -2.30501,-3.24819 -1.8832,1.57951 2.39502,3.72233 z"
             id="path23" /></g></g><g
         id="g29"
         inkscape:label="Nut"
         transform="rotate(6.291626,127.55071,-102.05223)"
         style="filter:url(#filter99)"><path
           sodipodi:type="star"
           style="fill:#666666;fill-opacity:1;stroke:none;stroke-width:1.5;stroke-linecap:round;stroke-linejoin:round;paint-order:stroke markers fill"
           id="path24"
           inkscape:flatsided="true"
           sodipodi:sides="6"
           sodipodi:cx="146.6207"
           sodipodi:cy="160.40335"
           sodipodi:r1="2.2630436"
           sodipodi:r2="1.9598533"
           sodipodi:arg1="1.0471976"
           sodipodi:arg2="1.5707963"
           inkscape:rounded="0"
           inkscape:randomized="0"
           d="m 147.75222,162.3632 -2.26304,0 -1.13153,-1.95985 1.13153,-1.95985 2.26304,0 1.13152,1.95985 z"
           transform="matrix(0.74602937,0.43072026,-0.43072026,0.74602937,107.82902,-21.195661)" /><path
           sodipodi:type="star"
           style="fill:#4d4d4d;fill-opacity:1;stroke:none;stroke-width:1.5;stroke-linecap:round;stroke-linejoin:round;paint-order:stroke markers fill"
           id="path25"
           inkscape:flatsided="true"
           sodipodi:sides="6"
           sodipodi:cx="146.6207"
           sodipodi:cy="160.40335"
           sodipodi:r1="2.2630436"
           sodipodi:r2="1.9598533"
           sodipodi:arg1="1.0471976"
           sodipodi:arg2="1.5707963"
           inkscape:rounded="0"
           inkscape:randomized="0"
           d="m 147.75222,162.3632 -2.26304,0 -1.13153,-1.95985 1.13153,-1.95985 2.26304,0 1.13152,1.95985 z"
           transform="matrix(0.55292642,0.31923222,-0.31923222,0.55292642,118.44563,26.017314)" /></g></g></g></svg>
